<svg width="70" height="70" viewBox="0 0 70 70" fill="none" xmlns="http://www.w3.org/2000/svg">
<path fill-rule="evenodd" clip-rule="evenodd" d="M35 5.83333C46.2759 5.83333 55.4167 14.9742 55.4167 26.25C55.4167 29.6593 54.5834 32.8717 53.104 35.6983L35 67.0833L17.3154 36.4595C15.575 33.4542 14.5834 29.9692 14.5834 26.25C14.5834 14.9742 23.7242 5.83333 35 5.83333ZM35 11.6667C26.9459 11.6667 20.4167 18.1958 20.4167 26.25C20.4167 28.566 20.951 30.7882 21.962 32.7943L22.452 33.6893L35 55.4167L47.6367 33.5362C48.9072 31.3423 49.5834 28.8555 49.5834 26.25C49.5834 18.1958 43.0542 11.6667 35 11.6667ZM35 17.5C39.8325 17.5 43.75 21.4175 43.75 26.25C43.75 31.0825 39.8325 35 35 35C30.1675 35 26.25 31.0825 26.25 26.25C26.25 21.4175 30.1675 17.5 35 17.5ZM35 23.3333C33.3892 23.3333 32.0834 24.6392 32.0834 26.25C32.0834 27.8608 33.3892 29.1667 35 29.1667C36.6109 29.1667 37.9167 27.8608 37.9167 26.25C37.9167 24.6392 36.6109 23.3333 35 23.3333Z" fill="#C0B7E8"/>
</svg>
